<?xml version="1.0" standalone="no"?><!DOCTYPE svg PUBLIC "-//W3C//DTD SVG 1.1//EN" "http://www.w3.org/Graphics/SVG/1.1/DTD/svg11.dtd"><svg t="1664972263578" class="icon" viewBox="0 0 1024 1024" version="1.1" xmlns="http://www.w3.org/2000/svg" p-id="2567" xmlns:xlink="http://www.w3.org/1999/xlink" width="200" height="200"><path d="M442.4192 665.7536c-8.3968-3.072-15.2064-7.168-20.224-12.288-10.3424-10.5984-10.1888-22.7328-10.1888-22.7328l0.0512-438.5792c0-55.9616-45.5168-101.4784-101.4784-101.4784S209.1008 136.192 209.1008 192.1536v117.2992h48.0768V192.1536c0-29.44 23.9616-53.4016 53.4016-53.4016s53.4016 23.9616 53.4016 53.4016v436.4288c-0.2048 6.4512 0.3584 33.3824 22.528 57.088 12.4416 13.312 29.0816 22.7328 49.5616 28.416 0.6144-16.5376 2.7648-32.6656 6.3488-48.3328z" fill="#52A9F7" p-id="2568"></path><path d="M216.3712 324.6592V189.3376s0-86.1696 93.6448-86.1696c0 0-58.0096 7.8336-72.6528 52.8896-3.7376 14.6432-5.12 37.5296-5.12 70.6048v98.048h-15.872z" fill="#85CEFF" p-id="2569"></path><path d="M203.776 309.4528h58.6752v491.5712H203.776z" fill="#66B8FA" p-id="2570"></path><path d="M209.2544 309.4528h41.9328v491.5712h-41.9328z" fill="#85CEFF" p-id="2571"></path><path d="M203.776 309.4528h26.4192v491.5712H203.776z" fill="#A2DCFC" p-id="2572"></path><path d="M658.1248 764.16c0-94.3616 76.4928-170.9056 170.9056-170.9056 38.8608 0 74.6496 13.0048 103.3728 34.816V516.096c0-31.5392-25.5488-57.088-57.088-57.088h-173.7216c-146.8416 0-265.8304 119.04-265.8304 265.8304v74.1376c0 30.5152 24.7296 55.2448 55.2448 55.2448h192.8192a169.80992 169.80992 0 0 1-25.7024-90.0608z" fill="#F7D53A" p-id="2573"></path><path d="M829.0304 618.8544c-80.2304 0-145.3056 65.0752-145.3056 145.3056 0 80.2304 65.0752 145.3056 145.3056 145.3056 80.2304 0 145.3056-65.0752 145.3056-145.3056 0-80.2304-65.0752-145.3056-145.3056-145.3056z m0 209.3056c-35.328 0-63.9488-28.6208-63.9488-63.9488s28.6208-63.9488 63.9488-63.9488 63.9488 28.6208 63.9488 63.9488c0 35.2768-28.6208 63.9488-63.9488 63.9488z" fill="#F76439" p-id="2574"></path><path d="M369.408 764.16H96.8704c-23.808 0-43.1616 19.3024-43.1616 43.1616v119.2448h358.8096v-119.2448c0-23.808-19.3024-43.1616-43.1104-43.1616z" fill="#DD442A" p-id="2575"></path><path d="M350.976 764.16H96.8704c-23.808 0-43.1616 19.3024-43.1616 43.1616v119.2448h340.4288v-119.2448c0-23.808-19.3536-43.1616-43.1616-43.1616z" fill="#EF6536" p-id="2576"></path><path d="M932.352 572.1088a217.01632 217.01632 0 0 0-102.5536-25.6512c-120.2688 0-217.7536 97.4848-217.7536 217.7536 0 32.1024 7.0144 62.6176 19.5072 90.0608h52.224a170.22976 170.22976 0 0 1-25.6512-90.0608c0-94.3616 76.4928-170.9056 170.9056-170.9056 38.8608 0 74.6496 13.0048 103.3728 34.816v-56.0128z" fill="#F9BD53" p-id="2577"></path><path d="M846.3872 480.7168c44.2368 0 71.6288 16.8448 85.5552 28.8768-1.1776-10.5984-5.3248-20.224-11.4688-28.2624-38.2976-23.808-116.992-17.9712-172.3392-17.9712-153.3952 0-193.8944 48.5888-212.8384 63.9488-52.1728 47.0528-81.8688 146.8416-70.6048 231.7824 11.264 84.9408 41.9328 19.456 41.9328-77.7728 0-189.2864 216.9344-200.5504 216.9344-200.5504s54.272-0.0512 122.8288-0.0512z" fill="#FCE275" p-id="2578"></path><path d="M683.776 854.2208c-11.9296-19.2-20.1216-40.96-23.6544-64.2048-5.4272 29.5936-30.6688 26.88-30.6688 26.88H492.3392c-34.4576 0-50.7392-41.5232-56.6272-61.7984v43.8784c0 30.5152 24.7296 55.2448 55.2448 55.2448h192.8192z" fill="#F2B53D" p-id="2579"></path><path d="M359.8336 777.984H115.2512s-46.0288 0.512-46.0288 31.232v63.4368s3.072-67.9936 36.8128-67.9936h253.7984s13.824-0.5632 13.824-12.8512-7.68-13.824-13.824-13.824z" fill="#FC7F6B" p-id="2580"></path><path d="M388.864 187.5456c0 68.5056 0.6144 380.9792 0.6144 424.192 0 48.5888 21.9136 62.4128 30.5664 77.8752-48.8448-13.824-46.2336-77.3632-46.2336-77.3632V187.5968s0.6656-29.184-24.8832-47.104c13.1072 6.8096 39.936 12.1344 39.936 47.0528z" fill="#85CEFF" p-id="2581"></path><path d="M924.8768 679.5776s-68.1984-82.5344-166.4512-26.624c-73.0112 47.7696-65.4848 141.2096-40.9088 178.0736 0-60.0576-7.5264-122.112 51.8656-156.928 31.3344-16.9984 70.1952-27.9552 155.4944 5.4784zM901.1712 755.0976s5.5296 91.3408-92.1088 78.1824c25.6 11.7248 107.9808 14.5408 92.1088-78.1824z" fill="#FC7F6B" p-id="2582"></path><path d="M879.8208 878.4384c-31.3344 13.1072-70.9632 20.7872-140.5952-0.1024 24.7296 19.456 55.9104 31.1296 89.8048 31.1296 80.2304 0 145.3056-65.0752 145.3056-145.3056 0-11.6736-1.4336-22.9888-3.9936-33.8432 0.1536 30.2592-7.68 109.1584-90.5216 148.1216z" fill="#DD442A" p-id="2583"></path></svg>