<?xml version="1.0" standalone="no"?><!DOCTYPE svg PUBLIC "-//W3C//DTD SVG 1.1//EN" "http://www.w3.org/Graphics/SVG/1.1/DTD/svg11.dtd"><svg t="1664972276290" class="icon" viewBox="0 0 1024 1024" version="1.1" xmlns="http://www.w3.org/2000/svg" p-id="3074" xmlns:xlink="http://www.w3.org/1999/xlink" width="200" height="200"><path d="M893.0304 751.3088H131.4304V236.0832c0-25.2928 20.48-45.7728 45.7728-45.7728h670.1056c25.2928 0 45.7728 20.48 45.7728 45.7728v515.2256z" fill="#FF973D" p-id="3075"></path><path d="M782.4384 654.3872H243.4048c-16.5888 0-30.0544-13.4656-30.0544-30.0544V292.7616c0-16.5888 13.4656-30.0544 30.0544-30.0544h539.0336c16.5888 0 30.0544 13.4656 30.0544 30.0544v331.5712c0 16.5888-13.4656 30.0544-30.0544 30.0544z" fill="#FB3E57" p-id="3076"></path><path d="M782.4384 664.6272H243.4048c-22.2208 0-40.2944-18.0736-40.2944-40.2944V292.7616c0-22.2208 18.0736-40.2944 40.2944-40.2944h539.0336c22.2208 0 40.2944 18.0736 40.2944 40.2944v331.5712c0 22.2208-18.0736 40.2944-40.2944 40.2944zM243.4048 272.896c-10.9568 0-19.8144 8.9088-19.8144 19.8144v331.5712a19.8656 19.8656 0 0 0 19.8144 19.8144h539.0336c10.9568 0 19.8144-8.9088 19.8144-19.8144V292.7616a19.8656 19.8656 0 0 0-19.8144-19.8144H243.4048zM894.464 849.5616H131.3792c-51.968 0-94.1056-42.1376-94.1056-94.1056v-4.1472h951.296v4.1472c0 51.968-42.1376 94.1056-94.1056 94.1056z" fill="#F4663C" p-id="3077"></path><path d="M578.9184 820.4288H469.8112c-16.5376 0-29.9008-13.3632-29.9008-29.9008v-39.2704h168.9088v39.2704c0 16.5376-13.3632 29.9008-29.9008 29.9008z" fill="#E54F2C" p-id="3078"></path><path d="M569.344 811.3664H460.2368c-16.5376 0-29.9008-13.3632-29.9008-29.9008v-30.1568h168.9088v30.1568c0 16.4864-13.4144 29.9008-29.9008 29.9008z" fill="#FBB768" p-id="3079"></path><path d="M847.2576 190.3616h-79.0528c14.4896 0.2048 90.4192 4.5568 90.4192 72.3456v488.6016h34.3552V236.0832c0.0512-25.2416-20.4288-45.7216-45.7216-45.7216z" fill="#F9842D" p-id="3080"></path><path d="M131.3792 849.5616H894.464c51.968 0 94.1056-42.1376 94.1056-94.1056v-4.1472h-51.7632s22.528 80.4352-65.6896 80.4352H131.4816s-84.8896-3.9936-94.208-80.4352v4.1472c0 51.968 42.1376 94.1056 94.1056 94.1056z" fill="#E54F2C" p-id="3081"></path><path d="M399.0528 208.0768H193.536c-21.76 0-39.424 17.664-39.424 39.424v179.712c0 5.5296 8.0384 6.144 8.8576 0.7168l11.52-174.5408a26.89536 26.89536 0 0 1 23.6544-22.528l201.3184-15.0528c4.864-0.6144 4.4544-7.7312-0.4096-7.7312z" fill="#FFC197" p-id="3082"></path><path d="M561.4592 788.2752H430.336v-36.9664h145.664v22.4256c0 8.0384-6.5536 14.5408-14.5408 14.5408z" fill="#FFD0A1" p-id="3083"></path><path d="M409.856 541.7984c-5.5808 0-11.0592-2.56-14.5408-7.424a17.98144 17.98144 0 0 1 4.0448-25.0368l186.624-134.4512a17.94048 17.94048 0 0 1 25.0368 4.0448c5.7856 8.0384 3.9424 19.2512-4.0448 25.0368L420.352 538.4192c-3.1744 2.304-6.8608 3.3792-10.496 3.3792zM409.4464 460.0832c-5.5808 0-11.0592-2.56-14.5408-7.424a17.98144 17.98144 0 0 1 4.0448-25.0368L487.2192 364.032a17.94048 17.94048 0 0 1 25.0368 4.0448c5.7856 8.0384 3.9424 19.2512-4.0448 25.0368L419.9424 456.704c-3.1744 2.304-6.8608 3.3792-10.496 3.3792zM529.4592 540.0576c-5.5808 0-11.0592-2.56-14.5408-7.424a17.98144 17.98144 0 0 1 4.0448-25.0368l88.2688-63.5904a17.94048 17.94048 0 0 1 25.0368 4.0448c5.7856 8.0384 3.9424 19.2512-4.0448 25.0368l-88.2688 63.5904c-3.1744 2.2528-6.8608 3.3792-10.496 3.3792z" fill="#FCDCC0" p-id="3084"></path></svg>