<?xml version="1.0" standalone="no"?><!DOCTYPE svg PUBLIC "-//W3C//DTD SVG 1.1//EN" "http://www.w3.org/Graphics/SVG/1.1/DTD/svg11.dtd"><svg t="1664972269536" class="icon" viewBox="0 0 1024 1024" version="1.1" xmlns="http://www.w3.org/2000/svg" p-id="2727" xmlns:xlink="http://www.w3.org/1999/xlink" width="200" height="200"><path d="M841.216 845.9776H185.1904c-56.576 0-102.4-45.824-102.4-102.4V298.7008c0-56.576 45.824-102.4 102.4-102.4H841.216c56.576 0 102.4 45.824 102.4 102.4v444.8768c0 56.576-45.8752 102.4-102.4 102.4z" fill="#F4812C" p-id="2728"></path><path d="M796.2112 828.4672H185.1904c-56.576 0-102.4-45.824-102.4-102.4V298.7008c0-56.576 45.824-102.4 102.4-102.4h611.0208c56.576 0 102.4 45.824 102.4 102.4v427.3664c0 56.5248-45.824 102.4-102.4 102.4z" fill="#FF973C" p-id="2729"></path><path d="M708.5056 693.76h-493.568c-22.6304 0-40.96-18.3296-40.96-40.96V308.5312c0-22.6304 18.3296-40.96 40.96-40.96h493.568c22.6304 0 40.96 18.3296 40.96 40.96v344.32c0 22.5792-18.3296 40.9088-40.96 40.9088z" fill="#ECF5FE" p-id="2730"></path><path d="M807.1168 374.0672a43.6224 40.96 0 1 0 87.2448 0 43.6224 40.96 0 1 0-87.2448 0Z" fill="#F4812C" p-id="2731"></path><path d="M848.0768 368.9472m-40.96 0a40.96 40.96 0 1 0 81.92 0 40.96 40.96 0 1 0-81.92 0Z" fill="#8753FF" p-id="2732"></path><path d="M843.7248 364.5952m-36.608 0a36.608 36.608 0 1 0 73.216 0 36.608 36.608 0 1 0-73.216 0Z" fill="#9368FE" p-id="2733"></path><path d="M847.5136 328.192a36.60288 36.60288 0 0 0-29.7472 62.208c-12.3392-44.9536 24.7808-60.3648 29.7472-62.208z" fill="#B8A1FF" p-id="2734"></path><path d="M807.1168 523.3152a43.6224 40.96 0 1 0 87.2448 0 43.6224 40.96 0 1 0-87.2448 0Z" fill="#F4812C" p-id="2735"></path><path d="M848.0768 518.1952m-40.96 0a40.96 40.96 0 1 0 81.92 0 40.96 40.96 0 1 0-81.92 0Z" fill="#8753FF" p-id="2736"></path><path d="M843.7248 513.8432m-36.608 0a36.608 36.608 0 1 0 73.216 0 36.608 36.608 0 1 0-73.216 0Z" fill="#9368FE" p-id="2737"></path><path d="M847.5136 477.44a36.60288 36.60288 0 0 0-29.7472 62.208c-12.3392-44.9536 24.7808-60.3648 29.7472-62.208z" fill="#B8A1FF" p-id="2738"></path><path d="M634.112 789.6576H190.3104c-9.0112 0-16.3328-7.3216-16.3328-16.3328v-5.5808c0-5.9392 4.8128-10.752 10.752-10.752h457.6256c4.4544 0 8.0896 3.6352 8.0896 8.0896v8.2432c0 9.0624-7.3216 16.3328-16.3328 16.3328z" fill="#F4812C" p-id="2739"></path><path d="M634.112 782.592H190.3104c-9.0112 0-16.3328-7.3216-16.3328-16.3328s7.3216-16.3328 16.3328-16.3328h443.8016c9.0112 0 16.3328 7.3216 16.3328 16.3328s-7.3216 16.3328-16.3328 16.3328z" fill="#F7D53A" p-id="2740"></path><path d="M637.2352 776.3968h-450.048a13.2608 13.2608 0 0 1 0-26.5216h449.9968a13.2608 13.2608 0 0 1 13.2608 13.2608c0 7.3216-5.888 13.2608-13.2096 13.2608z" fill="#FFEC64" p-id="2741"></path><path d="M863.5904 789.6576H770.048c-9.0112 0-16.3328-7.3216-16.3328-16.3328v-1.9456c0-9.0112 7.3216-16.3328 16.3328-16.3328h93.5424c9.0112 0 16.3328 7.3216 16.3328 16.3328v1.9456c0 9.0624-7.3216 16.3328-16.3328 16.3328z" fill="#F4812C" p-id="2742"></path><path d="M863.5904 782.592H770.048c-9.0112 0-16.3328-7.3216-16.3328-16.3328s7.3216-16.3328 16.3328-16.3328h93.5424c9.0112 0 16.3328 7.3216 16.3328 16.3328s-7.3216 16.3328-16.3328 16.3328z" fill="#F7D53A" p-id="2743"></path><path d="M866.7136 776.3968H766.976a13.2608 13.2608 0 0 1 0-26.5216h99.7376a13.2608 13.2608 0 0 1 13.2608 13.2608 13.32736 13.32736 0 0 1-13.2608 13.2608z" fill="#FFEC64" p-id="2744"></path><path d="M234.2912 845.9776l-34.4576 69.888c-8.8064 17.8176 0 39.3216 18.7904 45.8752 11.9808 4.1472 25.2416 1.1264 34.2528-7.7824l108.3904-107.9296h-126.976zM834.816 845.9776l34.4576 69.888c8.8064 17.8176 0 39.3216-18.7904 45.8752a33.2288 33.2288 0 0 1-34.2528-7.7824l-108.3904-107.9296h126.976z" fill="#68B6FC" p-id="2745"></path><path d="M705.024 769.1776m-23.552 0a23.552 23.552 0 1 0 47.104 0 23.552 23.552 0 1 0-47.104 0Z" fill="#F4812C" p-id="2746"></path><path d="M702.7712 766.2592m-22.2208 0a22.2208 22.2208 0 1 0 44.4416 0 22.2208 22.2208 0 1 0-44.4416 0Z" fill="#8753FF" p-id="2747"></path><path d="M700.6208 764.1088m-20.1216 0a20.1216 20.1216 0 1 0 40.2432 0 20.1216 20.1216 0 1 0-40.2432 0Z" fill="#9368FE" p-id="2748"></path><path d="M418.0992 196.3008L356.7104 94.5664a20.6592 20.6592 0 0 1 7.8336-28.8256 20.62336 20.62336 0 0 1 27.4944 7.424l75.0592 123.1872h-48.9984zM609.6896 196.3008l61.3888-101.7344c6.0928-10.0864 2.5088-23.1936-7.8336-28.8256a20.62336 20.62336 0 0 0-27.4944 7.424L560.64 196.3008h49.0496z" fill="#68B6FC" p-id="2749"></path><path d="M321.3824 536.5248c-3.9424 0-7.8848-1.4848-10.8544-4.5056a15.36 15.36 0 0 1 0-21.7088l142.4896-142.4896a15.36 15.36 0 0 1 21.7088 0 15.36 15.36 0 0 1 0 21.7088l-142.4896 142.4896c-3.0208 2.9696-6.9632 4.5056-10.8544 4.5056zM365.1584 614.2976c-3.9424 0-7.8848-1.536-10.9056-4.5568a15.36 15.36 0 0 1 0.0512-21.7088l195.4816-194.0992a15.3088 15.3088 0 0 1 21.7088 0.1024 15.36 15.36 0 0 1-0.0512 21.7088l-195.4816 194.0992c-2.9696 2.9696-6.912 4.4544-10.8032 4.4544zM487.7312 610.3552c-3.9424 0-7.8848-1.4848-10.8544-4.5056a15.36 15.36 0 0 1 0-21.7088l108.8-108.5952a15.36 15.36 0 0 1 21.7088 0 15.36 15.36 0 0 1 0 21.7088l-108.8 108.5952c-3.0208 3.0208-6.9632 4.5056-10.8544 4.5056z" fill="#FFFFFF" p-id="2750"></path><path d="M668.1088 693.76h40.3968c22.6304 0 40.96-18.3296 40.96-40.96V308.5312c0-22.6304-18.3296-40.96-40.96-40.96h-41.9328c10.7008 0.3072 53.504 5.1712 53.504 61.7472v317.6448s3.8912 46.7968-51.968 46.7968z" fill="#C7DDEF" p-id="2751"></path><path d="M708.5056 701.44h-493.568c-26.8288 0-48.64-21.8112-48.64-48.64V308.5312c0-26.8288 21.8112-48.64 48.64-48.64h493.568c26.8288 0 48.64 21.8112 48.64 48.64v344.32c0 26.7776-21.8112 48.5888-48.64 48.5888z m-493.568-426.1888c-18.3296 0-33.28 14.9504-33.28 33.28v344.32c0 18.3296 14.9504 33.28 33.28 33.28h493.568c18.3296 0 33.28-14.9504 33.28-33.28V308.5312c0-18.3296-14.9504-33.28-33.28-33.28h-493.568z" fill="#F4812C" p-id="2752"></path><path d="M234.2912 845.9776l-5.1712 10.4448h98.1504L238.336 953.856s-9.1136 13.6704-25.4976 5.2224c1.792 1.024 3.6864 1.9456 5.7856 2.6624 11.9808 4.1472 25.2416 1.1264 34.2528-7.7824l108.3904-107.9296h-126.976zM719.6672 857.7536h104.2944s39.168 55.3984 45.4656 86.8864c4.1472-8.7552 4.5056-19.3024-0.1536-28.7744l-34.4576-69.888h-126.976l11.8272 11.776z" fill="#42AAEA" p-id="2753"></path><path d="M467.0976 196.3008L392.0384 73.1136a20.66944 20.66944 0 0 0-27.4944-7.424c-1.1776 0.6656-2.2528 1.3824-3.2256 2.2528 0.6656-0.2048 14.5408-3.7888 21.0432 7.2192 5.2736 9.0112 53.6576 89.1392 72.96 121.1392h11.776zM666.0096 67.6352c1.8944 1.8432 6.3488 8.0896-0.7168 21.1456-6.5024 12.0832-46.1824 76.544-65.3312 107.52h9.728l61.3888-101.7344c5.4784-9.1136 3.072-20.6336-5.0688-26.9312z" fill="#4BADEA" p-id="2754"></path><path d="M444.5696 225.3824a12.7488 12.7488 0 0 0-12.7488-12.7488h-242.176s-88.2176 0.768-88.2176 120.4736c24.5248-48.896 40.192-94.976 90.2144-94.976h240.1792c7.0656 0 12.7488-5.6832 12.7488-12.7488zM100.4544 556.4416c-3.2256 0-5.888 2.6112-5.888 5.888v179.0976s-2.304 58.5216 47.7184 78.4384c-15.6672-16.1792-35.9424-40.4992-35.9424-79.7184v-177.7664c0-3.2768-2.6624-5.9392-5.888-5.9392z" fill="#F9C38F" p-id="2755"></path><path d="M637.6448 763.136H187.8016c-2.56 0-4.6592-2.0992-4.6592-4.6592s2.0992-4.6592 4.6592-4.6592h449.8432c2.56 0 4.6592 2.0992 4.6592 4.6592 0 2.6112-2.0992 4.6592-4.6592 4.6592z" fill="#FFF7D7" p-id="2756"></path></svg>