<?xml version="1.0" standalone="no"?><!DOCTYPE svg PUBLIC "-//W3C//DTD SVG 1.1//EN" "http://www.w3.org/Graphics/SVG/1.1/DTD/svg11.dtd"><svg t="1664972279266" class="icon" viewBox="0 0 1024 1024" version="1.1" xmlns="http://www.w3.org/2000/svg" p-id="3228" xmlns:xlink="http://www.w3.org/1999/xlink" width="200" height="200"><path d="M862.2592 630.528H165.2224a25.4976 25.4976 0 0 1-25.4976-25.4976V499.456H887.808v105.5744a25.5744 25.5744 0 0 1-25.5488 25.4976z" fill="#FEF052" p-id="3229"></path><path d="M862.2592 594.1248H165.2224a25.4976 25.4976 0 0 1-25.4976-25.4976V499.456H887.808v69.1712a25.5744 25.5744 0 0 1-25.5488 25.4976z" fill="#FFF87B" p-id="3230"></path><path d="M914.6368 154.368H112.8448C75.9808 154.368 46.08 184.2688 46.08 221.1328v276.224c0 36.864 29.9008 66.7648 66.7648 66.7648h26.368V499.456H887.296v64.7168h27.3408c36.864 0 66.7648-29.9008 66.7648-66.7648V221.1328c0-36.864-29.9008-66.7648-66.7648-66.7648z" fill="#0EDBD1" p-id="3231"></path><path d="M914.6368 154.368H112.8448C75.9808 154.368 46.08 184.2688 46.08 221.1328v156.0576c0 23.9616 29.9008 43.3664 66.7648 43.3664h801.7408c36.864 0 66.7648-19.4048 66.7648-43.3664V221.1328c0.0512-36.864-29.8496-66.7648-66.7136-66.7648z" fill="#1FE5D7" p-id="3232"></path><path d="M830.4128 356.1984H207.3088c-34.0992 0-61.7472-27.648-61.7472-61.7472V154.368h746.6496v140.0832c0 34.0992-27.648 61.7472-61.7984 61.7472z" fill="#06CCBE" p-id="3233"></path><path d="M818.6368 336.7424H208.8448c-34.0992 0-61.7472-27.648-61.7472-61.7472V152.4224h733.3376V274.944c0 34.0992-27.648 61.7984-61.7984 61.7984z" fill="#FCF165" p-id="3234"></path><path d="M818.6368 281.3952H208.8448c-34.0992 0-61.7472-27.648-61.7472-61.7472V152.4224h733.3376V219.648c0 34.0992-27.648 61.7472-61.7984 61.7472z" fill="#FFF87B" p-id="3235"></path><path d="M272.9472 879.4112c-12.6976 0-24.9344-6.7584-31.488-18.6368a35.8144 35.8144 0 0 1 14.2336-48.64c1.536-0.8704 2.7648-3.4304 3.0208-6.4 0.256-2.816-0.0512-10.0352-8.1408-16.7424-29.6448-22.9888-37.7856-48.5376-39.3728-65.9968-0.512-5.376-0.4096-10.5984 0.0512-15.5648 2.7648-28.2112 36.5568-41.1648 57.6-22.1696l3.84 3.4816c7.424 6.7072 10.4448 16.5376 9.8816 26.5216-0.0512 0.512 0 0.9728 0.0512 1.4336 0.6656 6.1952 7.8848 12.544 12.1344 15.7696l0.7168 0.5632c24.3712 19.8144 37.3248 49.3568 34.6112 79.104-2.4576 26.9824-17.408 50.432-39.9872 62.8224-5.4272 3.0208-11.3152 4.4544-17.152 4.4544zM433.1008 879.4112c-12.6976 0-24.9856-6.7584-31.488-18.6368-9.5232-17.3568-3.1232-39.1168 14.2336-48.64 1.536-0.8704 2.7648-3.4304 3.0208-6.4 0.256-2.816-0.0512-10.0352-8.1408-16.7424-29.6448-22.9888-37.7856-48.5376-39.3728-65.9968-0.512-5.376-0.4096-10.5984 0.0512-15.5648 2.7648-28.2112 36.5568-41.1648 57.6-22.1696l3.84 3.4816c7.424 6.7072 10.4448 16.5376 9.8816 26.5216-0.0512 0.512 0 0.9728 0.0512 1.4336 0.6656 6.1952 7.8848 12.544 12.1344 15.7696l0.7168 0.5632c24.3712 19.8144 37.3248 49.3568 34.6112 79.104-2.4576 26.9824-17.408 50.432-40.0384 62.8224-5.376 3.0208-11.3152 4.4544-17.1008 4.4544zM593.2032 879.4112c-12.6976 0-24.9344-6.7584-31.488-18.6368a35.8144 35.8144 0 0 1 14.2336-48.64c1.536-0.8704 2.7648-3.4304 3.0208-6.4 0.256-2.816-0.0512-10.0352-8.1408-16.7424-29.6448-22.9888-37.7856-48.5376-39.3728-65.9968-0.512-5.376-0.4096-10.5984 0.0512-15.5136 2.7648-28.2112 36.608-41.1648 57.6-22.1696l3.84 3.4816c7.424 6.7072 10.4448 16.5376 9.8816 26.5216-0.0512 0.512 0 0.9728 0.0512 1.4336 0.6656 6.1952 7.8848 12.544 12.1344 15.7696l0.768 0.6144c24.3712 19.8144 37.3248 49.3568 34.6112 79.104-2.4576 26.9824-17.408 50.432-39.9872 62.8224-5.4784 2.9184-11.3664 4.352-17.2032 4.352zM753.3568 879.4112c-12.6976 0-24.9344-6.7584-31.488-18.6368a35.8144 35.8144 0 0 1 14.2336-48.64c1.536-0.8704 2.7648-3.4304 3.0208-6.4 0.256-2.816-0.0512-10.0352-8.1408-16.7424-29.6448-22.9888-37.7856-48.5376-39.3728-65.9968-0.512-5.376-0.4096-10.5984 0.0512-15.5648 2.7648-28.2112 36.608-41.1648 57.6-22.1696l3.84 3.4816c7.424 6.7072 10.4448 16.5376 9.8816 26.5216-0.0512 0.512 0 0.9728 0.0512 1.4336 0.6656 6.1952 7.8848 12.544 12.1344 15.7696l0.768 0.6144c24.3712 19.8144 37.3248 49.3568 34.6112 79.104-2.4576 26.9824-17.408 50.432-39.9872 62.8224a35.9936 35.9936 0 0 1-17.2032 4.4032z" fill="#91F2E2" p-id="3236"></path><path d="M670.4128 424.1408m-27.0848 0a27.0848 27.0848 0 1 0 54.1696 0 27.0848 27.0848 0 1 0-54.1696 0Z" fill="#06C6B8" p-id="3237"></path><path d="M668.8256 420.608m-27.0848 0a27.0848 27.0848 0 1 0 54.1696 0 27.0848 27.0848 0 1 0-54.1696 0Z" fill="#EB5C56" p-id="3238"></path><path d="M668.8256 393.472c-14.9504 0-27.0848 12.1344-27.0848 27.0848 0 6.0416 2.048 11.52 5.376 16.0256a26.8288 26.8288 0 0 0 17.92 6.912c14.9504 0 27.0848-12.1344 27.0848-27.0848 0-6.0416-2.048-11.52-5.376-16.0256-4.8128-4.2496-11.0592-6.912-17.92-6.912z" fill="#FC6363" p-id="3239"></path><path d="M761.088 424.1408m-27.0848 0a27.0848 27.0848 0 1 0 54.1696 0 27.0848 27.0848 0 1 0-54.1696 0Z" fill="#06C6B8" p-id="3240"></path><path d="M759.5008 420.608m-27.0848 0a27.0848 27.0848 0 1 0 54.1696 0 27.0848 27.0848 0 1 0-54.1696 0Z" fill="#EB5C56" p-id="3241"></path><path d="M759.5008 393.472c-14.9504 0-27.0848 12.1344-27.0848 27.0848 0 6.0416 2.048 11.52 5.376 16.0256a26.8288 26.8288 0 0 0 17.92 6.912c14.9504 0 27.0848-12.1344 27.0848-27.0848 0-6.0416-2.048-11.52-5.376-16.0256-4.8128-4.2496-11.008-6.912-17.92-6.912z" fill="#FC6363" p-id="3242"></path><path d="M871.1168 423.1168m-38.8096 0a38.8096 38.8096 0 1 0 77.6192 0 38.8096 38.8096 0 1 0-77.6192 0Z" fill="#06C6B8" p-id="3243"></path><path d="M868.8128 418.0992m-38.8096 0a38.8096 38.8096 0 1 0 77.6192 0 38.8096 38.8096 0 1 0-77.6192 0Z" fill="#EB5C56" p-id="3244"></path><path d="M868.8128 379.2896c-21.4016 0-38.7584 17.3568-38.7584 38.8096 0 8.6016 2.9184 16.4864 7.68 22.9376 6.8608 6.0928 15.7696 9.8816 25.6 9.8816 21.4016 0 38.8096-17.3568 38.8096-38.8096 0-8.6016-2.9184-16.4864-7.68-22.9376-6.8608-6.0928-15.7696-9.8816-25.6512-9.8816z" fill="#FC6363" p-id="3245"></path><path d="M840.96 207.1552H186.5216c-9.9328 0-17.9712-8.0384-17.9712-17.9712 0-9.9328 8.0384-17.9712 17.9712-17.9712h654.3872c9.9328 0 17.9712 8.0384 17.9712 17.9712 0 9.9328-8.0384 17.9712-17.92 17.9712z" fill="#FFFDE6" opacity=".6" p-id="3246"></path><path d="M840.96 557.4656H186.5216c-9.9328 0-17.9712-8.0384-17.9712-17.9712 0-9.9328 8.0384-17.9712 17.9712-17.9712h654.3872c9.9328 0 17.9712 8.0384 17.9712 17.9712 0 9.9328-8.0384 17.9712-17.92 17.9712z" fill="#FFFDE6" opacity=".6" p-id="3247"></path><path d="M981.76 497.408v-47.104c-0.3584 12.5952-6.2976 67.3792-83.9168 67.3792h-10.1888v46.5408h27.3408c36.864-0.0512 66.7648-29.952 66.7648-66.816zM113.2544 564.1728h26.368v-46.5408h-9.472s-83.6608 3.9424-83.6608-84.992v64.7168c-0.0512 36.9152 29.8496 66.816 66.7648 66.816z" fill="#06C6B8" p-id="3248"></path><path d="M295.5264 733.0816l-0.7168-0.5632c-1.8944-1.4848-4.4032-3.584-6.656-6.0416 0 0 35.2768 47.5648 30.8736 77.0048-4.4032 29.3888-19.6608 58.3168-48.2816 61.7472-28.6208 3.4304-33.8944-20.0704-33.536-23.552-0.3584 6.4 1.024 13.0048 4.3008 19.0464a35.75808 35.75808 0 0 0 31.488 18.6368c5.8368 0 11.7248-1.4336 17.152-4.4032 22.6304-12.3904 37.5808-35.84 39.9872-62.8224 2.7136-29.696-10.24-59.2896-34.6112-79.0528zM455.6288 733.0816l-0.7168-0.5632c-1.8944-1.4848-4.4032-3.584-6.656-6.0416 0 0 35.2768 47.5648 30.8736 77.0048-4.4032 29.3888-19.6608 58.3168-48.2816 61.7472-28.6208 3.4304-33.8944-20.0704-33.536-23.552-0.3584 6.4 1.024 13.0048 4.3008 19.0464a35.75808 35.75808 0 0 0 31.488 18.6368c5.8368 0 11.7248-1.4336 17.152-4.4032 22.6304-12.3904 37.5808-35.84 39.9872-62.8224 2.7136-29.696-10.1888-59.2896-34.6112-79.0528zM615.7824 733.0816l-0.7168-0.5632c-1.8944-1.4848-4.4032-3.584-6.656-6.0416 0 0 35.2768 47.5648 30.8736 77.0048-4.4032 29.3888-19.6608 58.3168-48.2816 61.7472-28.6208 3.4304-33.8944-20.0704-33.536-23.552-0.3584 6.4 1.024 13.0048 4.3008 19.0464a35.75808 35.75808 0 0 0 31.488 18.6368c5.8368 0 11.7248-1.4336 17.152-4.4032 22.6304-12.3904 37.5808-35.84 39.9872-62.8224 2.7136-29.696-10.24-59.2896-34.6112-79.0528zM775.936 733.0816l-0.7168-0.5632c-1.8944-1.4848-4.4032-3.584-6.656-6.0416 0 0 35.2768 47.5648 30.8736 77.0048-4.4032 29.3888-19.6608 58.3168-48.2816 61.7472-28.6208 3.4304-33.8944-20.0704-33.536-23.552-0.3584 6.4 1.024 13.0048 4.3008 19.0464a35.75808 35.75808 0 0 0 31.488 18.6368c5.8368 0 11.7248-1.4336 17.152-4.4032 22.6304-12.3904 37.5808-35.84 39.9872-62.8224 2.7136-29.696-10.24-59.2896-34.6112-79.0528z" fill="#77E5D8" p-id="3249"></path><path d="M250.624 788.9408c4.608 3.84 6.656 7.7824 7.5264 11.008-0.1024-7.168-5.5808-16.6912-12.6464-25.9072-24.5248-28.928-28.928-41.4208-24.9856-64.4608 4.096-24.064 32.2048-31.8464 33.5872-32.2048-19.2512-4.7616-40.6016 7.8848-42.752 30.0544-0.4608 4.9664-0.5632 10.1376-0.0512 15.5648 1.536 17.408 9.6768 42.9568 39.3216 65.9456zM410.7264 788.9408c4.608 3.84 6.656 7.7824 7.5264 11.008-0.1024-7.168-5.5808-16.6912-12.6464-25.9072-24.5248-28.928-28.928-41.4208-24.9856-64.4608 4.096-24.064 32.2048-31.8464 33.5872-32.2048-19.2512-4.7616-40.6016 7.8848-42.752 30.0544-0.4608 4.9664-0.5632 10.1376-0.0512 15.5648 1.536 17.408 9.6768 42.9568 39.3216 65.9456zM570.88 788.9408c4.608 3.84 6.656 7.7824 7.5264 11.008-0.1024-7.168-5.5808-16.6912-12.6464-25.9072-24.5248-28.928-28.928-41.4208-24.9856-64.4608 4.096-24.064 32.2048-31.8464 33.5872-32.2048-19.2512-4.7616-40.6016 7.8848-42.752 30.0544-0.4608 4.9664-0.5632 10.1376-0.0512 15.5648 1.536 17.408 9.6768 42.9568 39.3216 65.9456z" fill="#BEFCF0" p-id="3250"></path><path d="M731.0336 788.9408c4.608 3.84 6.656 7.7824 7.5264 11.008-0.1024-7.168-5.5808-16.6912-12.6464-25.9072-24.5248-28.928-28.928-41.4208-24.9856-64.4608 4.096-24.064 32.2048-31.8464 33.5872-32.2048-19.2512-4.7616-40.6016 7.8848-42.752 30.0544-0.4608 4.9664-0.5632 10.1376-0.0512 15.5648 1.536 17.408 9.6256 42.9568 39.3216 65.9456z" fill="#BEFCF0" p-id="3251"></path></svg>